PSF_ID_stride3.mot
nRows=15
nColumns=38

name PSF_ID_stride3.mot
datacolumns 38
datarows 15
range 1.0700000000 1.1400000000
endheader
time	pelvis_tilt_moment	pelvis_list_moment	pelvis_rotation_moment	pelvis_tx_force	pelvis_ty_force	pelvis_tz_force	hip_flexion_r_moment	hip_adduction_r_moment	hip_rotation_r_moment	knee_angle_r_moment	ankle_angle_r_moment	subtalar_angle_r_moment	mtp_angle_r_moment	hip_flexion_l_moment	hip_adduction_l_moment	hip_rotation_l_moment	knee_angle_l_moment	ankle_angle_l_moment	subtalar_angle_l_moment	mtp_angle_l_moment	lumbar_extension_moment	lumbar_bending_moment	lumbar_rotation_moment	arm_flex_r_moment	arm_add_r_moment	arm_rot_r_moment	elbow_flex_r_moment	pro_sup_r_moment	wrist_flex_r_moment	wrist_dev_r_moment	arm_flex_l_moment	arm_add_l_moment	arm_rot_l_moment	elbow_flex_l_moment	pro_sup_l_moment	wrist_flex_l_moment	wrist_dev_l_moment
        1.0700000000	      -14.2437473690	      -56.9271552037	        5.5031943112	       -3.0200550083	      177.1606138541	      234.5096382091	       62.3223717452	        1.5737751025	        2.0813761500	       18.2085980867	        4.1718189784	       -0.7175477436	        0.1926371407	     -113.9212989432	        8.3034686394	       -1.9166657592	      -65.9963341235	        4.9612863656	       -2.0352242573	       -0.0153686588	        4.2520976360	        8.6351363733	      -11.4906357862	       -6.6496232996	       -1.0574746602	       -0.4755717979	       -1.4752150993	        0.0042023186	       -0.0916470097	        0.1410417109	       -4.4802451701	        0.9341860944	        1.6369137952	       -1.1852755282	        0.0741985792	        0.1550129167	        0.1810881939	
        1.0750000000	      -25.7157265145	       10.3528397310	       13.1800340886	        3.0113999021	      294.5314234316	      232.3894463448	       59.1824916366	        1.5421921389	        1.6846740802	       18.3048312910	        4.1968004272	       -0.6669130123	        0.1995153375	      -54.9963501291	       -8.3534324609	       -1.8489572444	      -26.5174452570	       18.2735566284	       -4.9860734351	        0.0806117355	       19.3865419127	       10.7587997963	       -6.0164327500	       -7.1446670089	       -0.2098512906	        0.3488230449	       -0.8851639034	        0.0151331077	        0.0068138802	        0.1266491766	       -6.4029137035	        0.4007129097	        1.2495166949	       -0.7125574029	        0.0495051777	        0.1234358495	        0.1374421977	
        1.0800000000	      -39.9960000477	       64.3177846575	       23.5823838836	        9.7558237258	      347.9314180388	      178.2590609565	       58.9643883042	        2.3669489216	        1.0163155272	       18.3623281308	        4.2992165790	       -0.6106745024	        0.2088409454	      -20.7632041846	      -30.5237028670	       -2.0667193410	        2.4768162847	       25.2039852771	       -6.0330328497	        0.1811328189	       35.1430820998	       15.7752207768	       -0.8183008141	       -7.1937320698	        0.4063717713	        0.9543715982	        0.1226235414	        0.0172671793	        0.0941013709	        0.0564979070	       -7.3624346031	        0.2294383373	        0.9692472480	        0.1606263486	        0.0205284047	        0.1059534761	        0.0551156693	
        1.0850000000	      -50.9238586741	       79.5857360509	       36.5985772450	       12.2180603730	      340.2943755858	       97.4799600762	       65.8944554476	        4.9096595805	        0.0372159327	       18.9339122867	        4.4664573685	       -0.5503852259	        0.2201700180	      -27.7353134346	      -48.9711788465	       -6.7344694571	       10.2683739776	       19.3782376387	       -4.6370403607	        0.2738330488	       47.0606195900	       21.0010318383	        3.6515982434	       -6.1452158634	        0.7958264845	        1.3284014565	        1.2733169420	        0.0077383953	        0.1611867957	       -0.0346126935	       -7.3096959394	        0.3617666213	        0.7584190588	        1.1837935721	       -0.0092427815	        0.0967920335	       -0.0440216836	
        1.0900000000	      -51.0705848395	       73.6208206157	       49.5470249080	        7.5769641607	      275.4312307795	       -2.6316612132	       75.7864133743	        8.5129822205	       -1.1145353330	       20.0280199771	        4.6469637934	       -0.4885515102	        0.2307501851	      -50.3859419289	      -62.4452792739	      -14.9393699545	        9.6406014141	        7.7854789893	       -3.9907480796	        0.3422689560	       47.9114804257	       22.7465198849	        6.9487753703	       -4.5303482777	        1.0279999232	        1.4309919106	        2.2492844821	       -0.0045776305	        0.1996922650	       -0.1192153257	       -6.6600434261	        0.5490027969	        0.5363866891	        2.0636525560	       -0.0353321429	        0.0846798145	       -0.1334342718	
        1.0950000000	      -43.7104787219	       46.2466819474	       60.3327098866	       -8.6446129009	      105.7326953640	     -101.9292020776	       86.4889856461	       12.8605783818	       -2.3121647890	       21.7618186454	        4.7888137345	       -0.4276706739	        0.2383201119	      -93.9162585986	      -66.4996751128	      -26.7326788514	        5.1917666605	      -10.4587395216	       -4.1556017357	        0.3755761743	       43.4109664357	       22.3419661949	        8.9060595047	       -2.5013989855	        1.1909229154	        1.4298328375	        2.9039567847	       -0.0163222046	        0.2103161238	       -0.1820587775	       -4.9275578208	        0.6261999576	        0.2855605815	        2.6617155727	       -0.0555356333	        0.0668266460	       -0.1996464110	
        1.1000000000	      -25.1661004061	        5.8976240195	       66.6801687933	      -28.4331766247	      -86.0958695163	     -161.6678624383	       93.7597493932	       16.9397244692	       -3.3184595543	       23.7508144362	        4.8424278190	       -0.3724132544	        0.2411596581	     -139.4030178788	      -65.9980659469	      -38.9359291468	        2.3142925360	      -30.5585325947	       -5.9829322942	        0.3820025689	       31.8351446287	       18.2393330334	        9.5556980911	       -0.5937053223	        1.3394706664	        1.3289811309	        3.2355114305	       -0.0249869282	        0.2097650547	       -0.2192839447	       -3.0416818033	        0.6064964247	        0.0233267903	        2.9772338399	       -0.0688667154	        0.0454126571	       -0.2394168104	
        1.1050000000	       -2.8013741341	      -35.9167345565	       68.7416585905	      -44.4345121350	     -253.4560058973	     -177.0650345456	       96.4824031465	       20.0625625545	       -3.9921056302	       25.6183019773	        4.8076137366	       -0.3271436657	        0.2404429751	     -178.2578931871	      -57.2006594322	      -48.6904780474	        3.8083376211	      -49.1864265831	       -8.7150221030	        0.3535045998	       21.1305136778	       13.3271352949	        8.9615515524	        0.8704687636	        1.4628974287	        1.1854378217	        3.3799300165	       -0.0321285017	        0.1934071930	       -0.2406650018	       -1.3241901293	        0.4872649379	       -0.1649117855	        3.1346433160	       -0.0761622063	        0.0309703388	       -0.2618803840	
        1.1100000000	       17.3942492856	      -64.6770976449	       65.6978656507	      -49.5862690094	     -355.4782553362	     -145.7079558217	       93.8530810205	       21.8947633684	       -4.2916357366	       27.0473516219	        4.6907192205	       -0.2936193225	        0.2371508680	     -199.1609737269	      -47.2239253351	      -53.0007601588	       16.3723178012	      -63.7021367675	      -10.7220682619	        0.3041088895	       17.0397990001	       10.5398125037	        6.9160424190	        1.7472293623	        1.4637474072	        0.9728691845	        3.5872959398	       -0.0434912716	        0.1715312670	       -0.2688958234	        0.0275908600	        0.5556005547	       -0.1405491113	        3.3858932849	       -0.0790721273	        0.0415686079	       -0.2864680498	
        1.1150000000	       23.6800168878	      -61.2388864285	       58.9869520039	      -42.9660905976	     -343.2441070432	      -98.6146218243	       88.8138101522	       22.1662640648	       -4.4334640745	       27.6000839604	        4.5515765800	       -0.2638295731	        0.2356214061	     -193.4812088473	      -41.6334383678	      -49.7875214217	       40.3384665930	      -72.6460115681	       -9.7521790534	        0.2460875793	       22.2130228409	       12.6282183799	        3.5320322999	        1.9727886164	        1.2936442191	        0.6245162797	        4.0856332161	       -0.0649649981	        0.1433459592	       -0.3265886693	        1.0821469230	        0.9649160357	        0.1157562813	        3.9546892328	       -0.0791858887	        0.0833939202	       -0.3338262621	
        1.1200000000	       24.4635393045	      -44.5125108703	       49.5585452170	      -25.3515289160	     -285.2251692159	      -60.3223395244	       83.1808073730	       22.1854154790	       -4.6030153003	       27.7281865605	        4.4229720806	       -0.2292905293	        0.2353945074	     -174.0087042584	      -40.0462931421	      -40.5362865229	       73.4138423375	      -78.4823013879	       -6.6743782473	        0.1884062540	       36.7268521559	       19.1480094454	       -1.0632111985	        2.0188194565	        0.8332359612	        0.1196731767	        4.9510503137	       -0.0982726481	        0.1085454670	       -0.4203519012	        2.0405245784	        1.8767602661	        0.7140356644	        4.9142809251	       -0.0791044466	        0.1651579609	       -0.4094091854	
        1.1250000000	        8.4003185128	       -0.8798341050	       39.9550202500	        0.0909244169	     -135.6243052189	      -44.9481314170	       79.2178550480	       21.6662855685	       -5.1044956742	       27.0292802618	        4.3262330371	       -0.1761559529	        0.2393909345	     -137.9566282468	      -46.5615521387	      -25.9864119033	      110.4638604912	      -82.3942689894	       -1.2957006484	        0.1390847830	       60.2749386206	       31.7505067157	       -6.7453566134	        1.8483638861	        0.0829292899	       -0.5825425140	        6.2311364473	       -0.1454443691	        0.0651696412	       -0.5566395302	        3.0392394296	        3.3183929916	        1.5998449202	        6.3154259085	       -0.0783965091	        0.2831377467	       -0.5195952067	
        1.1300000000	      -14.4055165500	       44.7053236303	       33.6524023230	       26.6982692212	       37.6516652274	      -58.8369842347	       77.3786236281	       21.1867327183	       -5.9875809198	       25.7824647112	        4.2418080781	       -0.0971853418	        0.2446737760	     -104.1817413935	      -58.8928382729	      -13.1332691561	      142.0400454472	      -88.9238391630	        3.1396348938	        0.1017121164	       86.8854218812	       47.0692710172	      -12.9632707882	        1.6878721722	       -0.8369714834	       -1.4034889879	        7.6889436352	       -0.1996352832	        0.0149856538	       -0.7123749344	        4.1712450378	        5.0438055344	        2.6295748791	        7.9153683312	       -0.0771318801	        0.4183663297	       -0.6454214993	
        1.1350000000	      -36.6877363291	       77.7463545825	       34.2692703279	       51.2527220022	      197.0396653028	      -87.0545554854	       76.3324738271	       20.4489975279	       -7.0627100338	       24.1373619494	        4.1220576821	        0.0018767942	        0.2471212729	      -85.2839704824	      -73.5294342975	      -10.2572256321	      160.2310198739	     -101.4981160365	        4.3078966705	        0.0760750040	      111.8710355713	       62.3993957247	      -19.1281467834	        1.5446185395	       -1.7905363346	       -2.2387906857	        9.0658182074	       -0.2528256593	       -0.0380939621	       -0.8612329405	        5.3357224262	        6.7844986260	        3.6586040884	        9.4453257429	       -0.0743726826	        0.5516411898	       -0.7648347504	
        1.1400000000	      -51.0364614325	       85.3551673993	       38.4243008000	       72.5704386151	      308.8729311721	     -118.2707892758	       74.5849589398	       19.0236199910	       -8.0030812303	       22.2729829232	        3.9342559649	        0.1068883327	        0.2452788089	      -84.8153833442	      -86.6064187929	      -13.5503806466	      162.0572414717	     -121.1533780400	        3.5851790575	        0.0594259089	      131.4707419437	       75.3068054676	      -24.6745356367	        1.3753629957	       -2.6499485176	       -2.9856979919	       10.1433412063	       -0.2976468550	       -0.0894007306	       -0.9801285719	        6.3758455471	        8.2955423596	        4.5601580599	       10.6702609458	       -0.0693060625	        0.6660994963	       -0.8586284452	
